<svg xmlns="http://www.w3.org/2000/svg" xmlns:xlink="http://www.w3.org/1999/xlink" width="1080" zoomAndPan="magnify" viewBox="0 0 810 210" height="270" preserveAspectRatio="xMidYMid meet" version="1.0"><defs><g/><clipPath id="70a0d98db7"><rect x="0" width="799" y="0" height="25"/></clipPath><clipPath id="367c65b31c"><rect x="0" width="805" y="0" height="133"/></clipPath></defs><g transform="matrix(1, 0, 0, 1, 11, 141)"><g clip-path="url(#70a0d98db7)"><g fill="#ffffff" fill-opacity="1"><g transform="translate(0.684064, 19.168342)"><g><path d="M 11.015625 -7.171875 C 11.929688 -6.972656 12.632812 -6.578125 13.125 -5.984375 C 13.625 -5.398438 13.875 -4.644531 13.875 -3.71875 C 13.875 -2.519531 13.429688 -1.597656 12.546875 -0.953125 C 11.671875 -0.316406 10.375 0 8.65625 0 L 2.265625 0 L 2.265625 -13.90625 L 8.265625 -13.90625 C 9.804688 -13.90625 11.003906 -13.59375 11.859375 -12.96875 C 12.710938 -12.34375 13.140625 -11.460938 13.140625 -10.328125 C 13.140625 -9.554688 12.953125 -8.898438 12.578125 -8.359375 C 12.203125 -7.828125 11.679688 -7.429688 11.015625 -7.171875 Z M 3.734375 -12.6875 L 3.734375 -7.640625 L 8.15625 -7.640625 C 9.28125 -7.640625 10.144531 -7.851562 10.75 -8.28125 C 11.363281 -8.71875 11.671875 -9.347656 11.671875 -10.171875 C 11.671875 -10.992188 11.363281 -11.617188 10.75 -12.046875 C 10.144531 -12.472656 9.28125 -12.6875 8.15625 -12.6875 Z M 8.640625 -1.21875 C 9.878906 -1.21875 10.816406 -1.425781 11.453125 -1.84375 C 12.085938 -2.269531 12.40625 -2.929688 12.40625 -3.828125 C 12.40625 -5.566406 11.148438 -6.4375 8.640625 -6.4375 L 3.734375 -6.4375 L 3.734375 -1.21875 Z M 8.640625 -1.21875 "/></g></g></g><g fill="#ffffff" fill-opacity="1"><g transform="translate(31.553074, 19.168342)"><g/></g></g><g fill="#ffffff" fill-opacity="1"><g transform="translate(52.649485, 19.168342)"><g><path d="M 12.09375 -1.265625 L 12.09375 0 L 2.265625 0 L 2.265625 -13.90625 L 11.796875 -13.90625 L 11.796875 -12.625 L 3.734375 -12.625 L 3.734375 -7.6875 L 10.921875 -7.6875 L 10.921875 -6.4375 L 3.734375 -6.4375 L 3.734375 -1.265625 Z M 12.09375 -1.265625 "/></g></g></g><g fill="#ffffff" fill-opacity="1"><g transform="translate(81.830133, 19.168342)"><g/></g></g><g fill="#ffffff" fill-opacity="1"><g transform="translate(102.926544, 19.168342)"><g><path d="M 6.09375 0.125 C 5.0625 0.125 4.070312 -0.0390625 3.125 -0.375 C 2.175781 -0.707031 1.445312 -1.144531 0.9375 -1.6875 L 1.515625 -2.8125 C 2.015625 -2.3125 2.679688 -1.90625 3.515625 -1.59375 C 4.347656 -1.28125 5.207031 -1.125 6.09375 -1.125 C 7.34375 -1.125 8.273438 -1.351562 8.890625 -1.8125 C 9.515625 -2.269531 9.828125 -2.863281 9.828125 -3.59375 C 9.828125 -4.144531 9.65625 -4.585938 9.3125 -4.921875 C 8.976562 -5.253906 8.566406 -5.507812 8.078125 -5.6875 C 7.585938 -5.863281 6.90625 -6.0625 6.03125 -6.28125 C 4.988281 -6.539062 4.15625 -6.789062 3.53125 -7.03125 C 2.914062 -7.28125 2.382812 -7.65625 1.9375 -8.15625 C 1.488281 -8.664062 1.265625 -9.347656 1.265625 -10.203125 C 1.265625 -10.910156 1.453125 -11.550781 1.828125 -12.125 C 2.203125 -12.695312 2.769531 -13.15625 3.53125 -13.5 C 4.300781 -13.84375 5.253906 -14.015625 6.390625 -14.015625 C 7.191406 -14.015625 7.972656 -13.90625 8.734375 -13.6875 C 9.492188 -13.46875 10.148438 -13.171875 10.703125 -12.796875 L 10.203125 -11.625 C 9.617188 -12 8.992188 -12.28125 8.328125 -12.46875 C 7.671875 -12.664062 7.023438 -12.765625 6.390625 -12.765625 C 5.171875 -12.765625 4.253906 -12.53125 3.640625 -12.0625 C 3.023438 -11.59375 2.71875 -10.988281 2.71875 -10.25 C 2.71875 -9.6875 2.882812 -9.238281 3.21875 -8.90625 C 3.5625 -8.570312 3.988281 -8.3125 4.5 -8.125 C 5.007812 -7.945312 5.691406 -7.753906 6.546875 -7.546875 C 7.566406 -7.296875 8.390625 -7.046875 9.015625 -6.796875 C 9.648438 -6.554688 10.1875 -6.1875 10.625 -5.6875 C 11.0625 -5.1875 11.28125 -4.515625 11.28125 -3.671875 C 11.28125 -2.972656 11.085938 -2.332031 10.703125 -1.75 C 10.328125 -1.175781 9.75 -0.71875 8.96875 -0.375 C 8.195312 -0.0390625 7.238281 0.125 6.09375 0.125 Z M 6.09375 0.125 "/></g></g></g><g fill="#ffffff" fill-opacity="1"><g transform="translate(131.034599, 19.168342)"><g/></g></g><g fill="#ffffff" fill-opacity="1"><g transform="translate(152.13101, 19.168342)"><g><path d="M 7.46875 -13.90625 C 9.238281 -13.90625 10.625 -13.476562 11.625 -12.625 C 12.632812 -11.78125 13.140625 -10.617188 13.140625 -9.140625 C 13.140625 -7.648438 12.632812 -6.484375 11.625 -5.640625 C 10.625 -4.804688 9.238281 -4.390625 7.46875 -4.390625 L 3.734375 -4.390625 L 3.734375 0 L 2.265625 0 L 2.265625 -13.90625 Z M 7.421875 -5.6875 C 8.804688 -5.6875 9.859375 -5.984375 10.578125 -6.578125 C 11.304688 -7.179688 11.671875 -8.035156 11.671875 -9.140625 C 11.671875 -10.265625 11.304688 -11.125 10.578125 -11.71875 C 9.859375 -12.320312 8.804688 -12.625 7.421875 -12.625 L 3.734375 -12.625 L 3.734375 -5.6875 Z M 7.421875 -5.6875 "/></g></g></g><g fill="#ffffff" fill-opacity="1"><g transform="translate(182.284948, 19.168342)"><g/></g></g><g fill="#ffffff" fill-opacity="1"><g transform="translate(203.381368, 19.168342)"><g><path d="M 8.34375 0.125 C 6.96875 0.125 5.71875 -0.179688 4.59375 -0.796875 C 3.476562 -1.421875 2.601562 -2.265625 1.96875 -3.328125 C 1.34375 -4.398438 1.03125 -5.609375 1.03125 -6.953125 C 1.03125 -8.285156 1.34375 -9.488281 1.96875 -10.5625 C 2.601562 -11.632812 3.476562 -12.476562 4.59375 -13.09375 C 5.71875 -13.707031 6.96875 -14.015625 8.34375 -14.015625 C 9.71875 -14.015625 10.957031 -13.707031 12.0625 -13.09375 C 13.164062 -12.488281 14.035156 -11.644531 14.671875 -10.5625 C 15.304688 -9.488281 15.625 -8.285156 15.625 -6.953125 C 15.625 -5.609375 15.304688 -4.394531 14.671875 -3.3125 C 14.035156 -2.238281 13.164062 -1.394531 12.0625 -0.78125 C 10.957031 -0.175781 9.71875 0.125 8.34375 0.125 Z M 8.34375 -1.1875 C 9.4375 -1.1875 10.425781 -1.4375 11.3125 -1.9375 C 12.207031 -2.4375 12.90625 -3.125 13.40625 -4 C 13.90625 -4.882812 14.15625 -5.867188 14.15625 -6.953125 C 14.15625 -8.035156 13.90625 -9.015625 13.40625 -9.890625 C 12.90625 -10.773438 12.207031 -11.460938 11.3125 -11.953125 C 10.425781 -12.453125 9.4375 -12.703125 8.34375 -12.703125 C 7.238281 -12.703125 6.238281 -12.453125 5.34375 -11.953125 C 4.457031 -11.460938 3.757812 -10.773438 3.25 -9.890625 C 2.738281 -9.015625 2.484375 -8.035156 2.484375 -6.953125 C 2.484375 -5.867188 2.738281 -4.882812 3.25 -4 C 3.757812 -3.125 4.457031 -2.4375 5.34375 -1.9375 C 6.238281 -1.4375 7.238281 -1.1875 8.34375 -1.1875 Z M 8.34375 -1.1875 "/></g></g></g><g fill="#ffffff" fill-opacity="1"><g transform="translate(235.938721, 19.168342)"><g/></g></g><g fill="#ffffff" fill-opacity="1"><g transform="translate(257.035122, 19.168342)"><g><path d="M 6.578125 -6.53125 L 3.734375 -3.65625 L 3.734375 0 L 2.265625 0 L 2.265625 -13.90625 L 3.734375 -13.90625 L 3.734375 -5.5 L 11.890625 -13.90625 L 13.578125 -13.90625 L 7.5625 -7.609375 L 14 0 L 12.25 0 Z M 6.578125 -6.53125 "/></g></g></g><g fill="#ffffff" fill-opacity="1"><g transform="translate(287.05003, 19.168342)"><g/></g></g><g fill="#ffffff" fill-opacity="1"><g transform="translate(308.146431, 19.168342)"><g><path d="M 12.09375 -1.265625 L 12.09375 0 L 2.265625 0 L 2.265625 -13.90625 L 11.796875 -13.90625 L 11.796875 -12.625 L 3.734375 -12.625 L 3.734375 -7.6875 L 10.921875 -7.6875 L 10.921875 -6.4375 L 3.734375 -6.4375 L 3.734375 -1.265625 Z M 12.09375 -1.265625 "/></g></g></g><g fill="#ffffff" fill-opacity="1"><g transform="translate(337.332494, 19.168342)"><g/></g></g><g fill="#ffffff" fill-opacity="1"><g transform="translate(358.428904, 19.168342)"><g/></g></g><g fill="#ffffff" fill-opacity="1"><g transform="translate(379.529058, 19.168342)"><g><path d="M 4.96875 -12.625 L 0.078125 -12.625 L 0.078125 -13.90625 L 11.3125 -13.90625 L 11.3125 -12.625 L 6.4375 -12.625 L 6.4375 0 L 4.96875 0 Z M 4.96875 -12.625 "/></g></g></g><g fill="#ffffff" fill-opacity="1"><g transform="translate(406.822726, 19.168342)"><g/></g></g><g fill="#ffffff" fill-opacity="1"><g transform="translate(427.919137, 19.168342)"><g><path d="M 10.984375 -3.71875 L 3.234375 -3.71875 L 1.5625 0 L 0.046875 0 L 6.390625 -13.90625 L 7.84375 -13.90625 L 14.203125 0 L 12.65625 0 Z M 10.453125 -4.90625 L 7.109375 -12.375 L 3.765625 -4.90625 Z M 10.453125 -4.90625 "/></g></g></g><g fill="#ffffff" fill-opacity="1"><g transform="translate(458.053212, 19.168342)"><g/></g></g><g fill="#ffffff" fill-opacity="1"><g transform="translate(479.149623, 19.168342)"><g><path d="M 2.265625 -13.90625 L 3.734375 -13.90625 L 3.734375 0 L 2.265625 0 Z M 2.265625 -13.90625 "/></g></g></g><g fill="#ffffff" fill-opacity="1"><g transform="translate(501.040557, 19.168342)"><g/></g></g><g fill="#ffffff" fill-opacity="1"><g transform="translate(522.136967, 19.168342)"><g><path d="M 2.265625 -13.90625 L 3.734375 -13.90625 L 3.734375 -1.265625 L 11.515625 -1.265625 L 11.515625 0 L 2.265625 0 Z M 2.265625 -13.90625 "/></g></g></g><g fill="#ffffff" fill-opacity="1"><g transform="translate(549.728569, 19.168342)"><g/></g></g><g fill="#ffffff" fill-opacity="1"><g transform="translate(570.824989, 19.168342)"><g><path d="M 8.34375 0.125 C 6.96875 0.125 5.71875 -0.179688 4.59375 -0.796875 C 3.476562 -1.421875 2.601562 -2.265625 1.96875 -3.328125 C 1.34375 -4.398438 1.03125 -5.609375 1.03125 -6.953125 C 1.03125 -8.285156 1.34375 -9.488281 1.96875 -10.5625 C 2.601562 -11.632812 3.476562 -12.476562 4.59375 -13.09375 C 5.71875 -13.707031 6.96875 -14.015625 8.34375 -14.015625 C 9.71875 -14.015625 10.957031 -13.707031 12.0625 -13.09375 C 13.164062 -12.488281 14.035156 -11.644531 14.671875 -10.5625 C 15.304688 -9.488281 15.625 -8.285156 15.625 -6.953125 C 15.625 -5.609375 15.304688 -4.394531 14.671875 -3.3125 C 14.035156 -2.238281 13.164062 -1.394531 12.0625 -0.78125 C 10.957031 -0.175781 9.71875 0.125 8.34375 0.125 Z M 8.34375 -1.1875 C 9.4375 -1.1875 10.425781 -1.4375 11.3125 -1.9375 C 12.207031 -2.4375 12.90625 -3.125 13.40625 -4 C 13.90625 -4.882812 14.15625 -5.867188 14.15625 -6.953125 C 14.15625 -8.035156 13.90625 -9.015625 13.40625 -9.890625 C 12.90625 -10.773438 12.207031 -11.460938 11.3125 -11.953125 C 10.425781 -12.453125 9.4375 -12.703125 8.34375 -12.703125 C 7.238281 -12.703125 6.238281 -12.453125 5.34375 -11.953125 C 4.457031 -11.460938 3.757812 -10.773438 3.25 -9.890625 C 2.738281 -9.015625 2.484375 -8.035156 2.484375 -6.953125 C 2.484375 -5.867188 2.738281 -4.882812 3.25 -4 C 3.757812 -3.125 4.457031 -2.4375 5.34375 -1.9375 C 6.238281 -1.4375 7.238281 -1.1875 8.34375 -1.1875 Z M 8.34375 -1.1875 "/></g></g></g><g fill="#ffffff" fill-opacity="1"><g transform="translate(603.382361, 19.168342)"><g/></g></g><g fill="#ffffff" fill-opacity="1"><g transform="translate(624.478762, 19.168342)"><g><path d="M 11.75 0 L 8.578125 -4.46875 C 8.222656 -4.425781 7.851562 -4.40625 7.46875 -4.40625 L 3.734375 -4.40625 L 3.734375 0 L 2.265625 0 L 2.265625 -13.90625 L 7.46875 -13.90625 C 9.238281 -13.90625 10.625 -13.476562 11.625 -12.625 C 12.632812 -11.78125 13.140625 -10.617188 13.140625 -9.140625 C 13.140625 -8.046875 12.863281 -7.125 12.3125 -6.375 C 11.769531 -5.632812 10.988281 -5.097656 9.96875 -4.765625 L 13.359375 0 Z M 7.421875 -5.65625 C 8.804688 -5.65625 9.859375 -5.957031 10.578125 -6.5625 C 11.304688 -7.175781 11.671875 -8.035156 11.671875 -9.140625 C 11.671875 -10.265625 11.304688 -11.125 10.578125 -11.71875 C 9.859375 -12.320312 8.804688 -12.625 7.421875 -12.625 L 3.734375 -12.625 L 3.734375 -5.65625 Z M 7.421875 -5.65625 "/></g></g></g><g fill="#ffffff" fill-opacity="1"><g transform="translate(654.732024, 19.168342)"><g/></g></g><g fill="#ffffff" fill-opacity="1"><g transform="translate(675.828425, 19.168342)"><g><path d="M 2.265625 -13.90625 L 3.734375 -13.90625 L 3.734375 0 L 2.265625 0 Z M 2.265625 -13.90625 "/></g></g></g><g fill="#ffffff" fill-opacity="1"><g transform="translate(697.719359, 19.168342)"><g/></g></g><g fill="#ffffff" fill-opacity="1"><g transform="translate(718.815761, 19.168342)"><g><path d="M 13.875 -13.90625 L 13.875 0 L 12.671875 0 L 3.734375 -11.28125 L 3.734375 0 L 2.265625 0 L 2.265625 -13.90625 L 3.46875 -13.90625 L 12.4375 -2.625 L 12.4375 -13.90625 Z M 13.875 -13.90625 "/></g></g></g><g fill="#ffffff" fill-opacity="1"><g transform="translate(750.856679, 19.168342)"><g/></g></g><g fill="#ffffff" fill-opacity="1"><g transform="translate(771.953099, 19.168342)"><g><path d="M 12.046875 -6.953125 L 13.46875 -6.953125 L 13.46875 -1.640625 C 12.8125 -1.078125 12.039062 -0.640625 11.15625 -0.328125 C 10.269531 -0.0234375 9.335938 0.125 8.359375 0.125 C 6.972656 0.125 5.722656 -0.175781 4.609375 -0.78125 C 3.492188 -1.394531 2.617188 -2.238281 1.984375 -3.3125 C 1.347656 -4.394531 1.03125 -5.609375 1.03125 -6.953125 C 1.03125 -8.285156 1.347656 -9.488281 1.984375 -10.5625 C 2.617188 -11.644531 3.492188 -12.488281 4.609375 -13.09375 C 5.722656 -13.707031 6.976562 -14.015625 8.375 -14.015625 C 9.4375 -14.015625 10.410156 -13.847656 11.296875 -13.515625 C 12.179688 -13.179688 12.929688 -12.679688 13.546875 -12.015625 L 12.625 -11.078125 C 11.53125 -12.160156 10.132812 -12.703125 8.4375 -12.703125 C 7.3125 -12.703125 6.296875 -12.453125 5.390625 -11.953125 C 4.484375 -11.460938 3.769531 -10.773438 3.25 -9.890625 C 2.738281 -9.015625 2.484375 -8.035156 2.484375 -6.953125 C 2.484375 -5.867188 2.738281 -4.890625 3.25 -4.015625 C 3.769531 -3.140625 4.476562 -2.445312 5.375 -1.9375 C 6.28125 -1.4375 7.296875 -1.1875 8.421875 -1.1875 C 9.847656 -1.1875 11.054688 -1.546875 12.046875 -2.265625 Z M 12.046875 -6.953125 "/></g></g></g></g></g><g transform="matrix(1, 0, 0, 1, 5, 32)"><g clip-path="url(#367c65b31c)"><g fill="#ffffff" fill-opacity="1"><g transform="translate(2.349388, 99.101331)"><g><path d="M 3.40625 -69.765625 C 3.40625 -77.191406 5.175781 -82.894531 8.71875 -86.875 C 12.257812 -90.851562 17.570312 -92.84375 24.65625 -92.84375 C 31.738281 -92.84375 37.050781 -90.851562 40.59375 -86.875 C 44.132812 -82.894531 45.90625 -77.191406 45.90625 -69.765625 L 45.90625 -66.875 L 32.265625 -66.875 L 32.265625 -70.6875 C 32.265625 -74.007812 31.628906 -76.347656 30.359375 -77.703125 C 29.085938 -79.054688 27.316406 -79.734375 25.046875 -79.734375 C 22.773438 -79.734375 21.003906 -79.054688 19.734375 -77.703125 C 18.460938 -76.347656 17.828125 -74.007812 17.828125 -70.6875 C 17.828125 -67.539062 18.523438 -64.765625 19.921875 -62.359375 C 21.328125 -59.953125 23.078125 -57.675781 25.171875 -55.53125 C 27.273438 -53.394531 29.53125 -51.253906 31.9375 -49.109375 C 34.34375 -46.972656 36.59375 -44.632812 38.6875 -42.09375 C 40.78125 -39.5625 42.523438 -36.675781 43.921875 -33.4375 C 45.328125 -30.207031 46.03125 -26.40625 46.03125 -22.03125 C 46.03125 -14.601562 44.210938 -8.898438 40.578125 -4.921875 C 36.953125 -0.941406 31.597656 1.046875 24.515625 1.046875 C 17.441406 1.046875 12.085938 -0.941406 8.453125 -4.921875 C 4.828125 -8.898438 3.015625 -14.601562 3.015625 -22.03125 L 3.015625 -27.671875 L 16.65625 -27.671875 L 16.65625 -21.109375 C 16.65625 -17.785156 17.332031 -15.46875 18.6875 -14.15625 C 20.039062 -12.851562 21.851562 -12.203125 24.125 -12.203125 C 26.40625 -12.203125 28.222656 -12.851562 29.578125 -14.15625 C 30.929688 -15.46875 31.609375 -17.785156 31.609375 -21.109375 C 31.609375 -24.253906 30.90625 -27.03125 29.5 -29.4375 C 28.101562 -31.84375 26.351562 -34.113281 24.25 -36.25 C 22.15625 -38.394531 19.90625 -40.539062 17.5 -42.6875 C 15.101562 -44.832031 12.851562 -47.171875 10.75 -49.703125 C 8.65625 -52.234375 6.90625 -55.113281 5.5 -58.34375 C 4.101562 -61.582031 3.40625 -65.390625 3.40625 -69.765625 Z M 3.40625 -69.765625 "/></g></g></g><g fill="#ffffff" fill-opacity="1"><g transform="translate(77.614911, 99.101331)"><g><path d="M 51.9375 0 L 37.375 0 L 34.890625 -16.65625 L 17.171875 -16.65625 L 14.6875 0 L 1.4375 0 L 16.125 -91.796875 L 37.25 -91.796875 Z M 19.015625 -29.109375 L 32.921875 -29.109375 L 25.96875 -75.53125 Z M 19.015625 -29.109375 "/></g></g></g><g fill="#ffffff" fill-opacity="1"><g transform="translate(157.207303, 99.101331)"><g><path d="M 35.40625 0 C 35.226562 -0.613281 35.050781 -1.179688 34.875 -1.703125 C 34.707031 -2.222656 34.554688 -2.878906 34.421875 -3.671875 C 34.296875 -4.460938 34.207031 -5.46875 34.15625 -6.6875 C 34.113281 -7.914062 34.09375 -9.445312 34.09375 -11.28125 L 34.09375 -25.703125 C 34.09375 -29.984375 33.347656 -33 31.859375 -34.75 C 30.378906 -36.5 27.976562 -37.375 24.65625 -37.375 L 19.671875 -37.375 L 19.671875 0 L 5.25 0 L 5.25 -91.796875 L 27.015625 -91.796875 C 34.535156 -91.796875 39.976562 -90.046875 43.34375 -86.546875 C 46.707031 -83.054688 48.390625 -77.769531 48.390625 -70.6875 L 48.390625 -63.46875 C 48.390625 -54.03125 45.242188 -47.820312 38.953125 -44.84375 C 42.617188 -43.363281 45.128906 -40.9375 46.484375 -37.5625 C 47.835938 -34.195312 48.515625 -30.113281 48.515625 -25.3125 L 48.515625 -11.140625 C 48.515625 -8.867188 48.601562 -6.878906 48.78125 -5.171875 C 48.957031 -3.472656 49.394531 -1.75 50.09375 0 Z M 19.671875 -78.6875 L 19.671875 -50.484375 L 25.3125 -50.484375 C 28.019531 -50.484375 30.140625 -51.179688 31.671875 -52.578125 C 33.203125 -53.984375 33.96875 -56.519531 33.96875 -60.1875 L 33.96875 -69.25 C 33.96875 -72.5625 33.375 -74.960938 32.1875 -76.453125 C 31.007812 -77.941406 29.15625 -78.6875 26.625 -78.6875 Z M 19.671875 -78.6875 "/></g></g></g><g fill="#ffffff" fill-opacity="1"><g transform="translate(236.1441, 99.101331)"><g><path d="M 1.046875 -91.796875 L 45.640625 -91.796875 L 45.640625 -78.6875 L 30.5625 -78.6875 L 30.5625 0 L 16.125 0 L 16.125 -78.6875 L 1.046875 -78.6875 Z M 1.046875 -91.796875 "/></g></g></g><g fill="#ffffff" fill-opacity="1"><g transform="translate(309.049514, 99.101331)"><g><path d="M 18.484375 -21.109375 C 18.484375 -17.785156 19.160156 -15.445312 20.515625 -14.09375 C 21.878906 -12.738281 23.695312 -12.0625 25.96875 -12.0625 C 28.238281 -12.0625 30.050781 -12.738281 31.40625 -14.09375 C 32.757812 -15.445312 33.4375 -17.785156 33.4375 -21.109375 L 33.4375 -70.6875 C 33.4375 -74.007812 32.757812 -76.347656 31.40625 -77.703125 C 30.050781 -79.054688 28.238281 -79.734375 25.96875 -79.734375 C 23.695312 -79.734375 21.878906 -79.054688 20.515625 -77.703125 C 19.160156 -76.347656 18.484375 -74.007812 18.484375 -70.6875 Z M 4.0625 -69.765625 C 4.0625 -77.191406 5.941406 -82.894531 9.703125 -86.875 C 13.460938 -90.851562 18.882812 -92.84375 25.96875 -92.84375 C 33.050781 -92.84375 38.46875 -90.851562 42.21875 -86.875 C 45.976562 -82.894531 47.859375 -77.191406 47.859375 -69.765625 L 47.859375 -22.03125 C 47.859375 -14.601562 45.976562 -8.898438 42.21875 -4.921875 C 38.46875 -0.941406 33.050781 1.046875 25.96875 1.046875 C 18.882812 1.046875 13.460938 -0.941406 9.703125 -4.921875 C 5.941406 -8.898438 4.0625 -14.601562 4.0625 -22.03125 Z M 4.0625 -69.765625 "/></g></g></g><g fill="#ffffff" fill-opacity="1"><g transform="translate(387.199616, 99.101331)"><g><path d="M 35.40625 0 C 35.226562 -0.613281 35.050781 -1.179688 34.875 -1.703125 C 34.707031 -2.222656 34.554688 -2.878906 34.421875 -3.671875 C 34.296875 -4.460938 34.207031 -5.46875 34.15625 -6.6875 C 34.113281 -7.914062 34.09375 -9.445312 34.09375 -11.28125 L 34.09375 -25.703125 C 34.09375 -29.984375 33.347656 -33 31.859375 -34.75 C 30.378906 -36.5 27.976562 -37.375 24.65625 -37.375 L 19.671875 -37.375 L 19.671875 0 L 5.25 0 L 5.25 -91.796875 L 27.015625 -91.796875 C 34.535156 -91.796875 39.976562 -90.046875 43.34375 -86.546875 C 46.707031 -83.054688 48.390625 -77.769531 48.390625 -70.6875 L 48.390625 -63.46875 C 48.390625 -54.03125 45.242188 -47.820312 38.953125 -44.84375 C 42.617188 -43.363281 45.128906 -40.9375 46.484375 -37.5625 C 47.835938 -34.195312 48.515625 -30.113281 48.515625 -25.3125 L 48.515625 -11.140625 C 48.515625 -8.867188 48.601562 -6.878906 48.78125 -5.171875 C 48.957031 -3.472656 49.394531 -1.75 50.09375 0 Z M 19.671875 -78.6875 L 19.671875 -50.484375 L 25.3125 -50.484375 C 28.019531 -50.484375 30.140625 -51.179688 31.671875 -52.578125 C 33.203125 -53.984375 33.96875 -56.519531 33.96875 -60.1875 L 33.96875 -69.25 C 33.96875 -72.5625 33.375 -74.960938 32.1875 -76.453125 C 31.007812 -77.941406 29.15625 -78.6875 26.625 -78.6875 Z M 19.671875 -78.6875 "/></g></g></g><g fill="#ffffff" fill-opacity="1"><g transform="translate(466.136387, 99.101331)"><g><path d="M 5.25 -91.796875 L 19.671875 -91.796875 L 19.671875 0 L 5.25 0 Z M 5.25 -91.796875 "/></g></g></g><g fill="#ffffff" fill-opacity="1"><g transform="translate(517.276384, 99.101331)"><g><path d="M 51.9375 0 L 37.375 0 L 34.890625 -16.65625 L 17.171875 -16.65625 L 14.6875 0 L 1.4375 0 L 16.125 -91.796875 L 37.25 -91.796875 Z M 19.015625 -29.109375 L 32.921875 -29.109375 L 25.96875 -75.53125 Z M 19.015625 -29.109375 "/></g></g></g><g fill="#ffffff" fill-opacity="1"><g transform="translate(596.868823, 99.101331)"><g><path d="M 5.25 -91.796875 L 19.671875 -91.796875 L 19.671875 -13.109375 L 43.40625 -13.109375 L 43.40625 0 L 5.25 0 Z M 5.25 -91.796875 "/></g></g></g><g fill="#ffffff" fill-opacity="1"><g transform="translate(667.54523, 99.101331)"><g><path d="M 18.234375 -29.640625 L 18.234375 -21.109375 C 18.234375 -17.785156 18.910156 -15.46875 20.265625 -14.15625 C 21.617188 -12.851562 23.429688 -12.203125 25.703125 -12.203125 C 27.972656 -12.203125 29.785156 -12.851562 31.140625 -14.15625 C 32.492188 -15.46875 33.171875 -17.785156 33.171875 -21.109375 L 33.171875 -41.3125 C 33.171875 -44.632812 32.492188 -46.972656 31.140625 -48.328125 C 29.785156 -49.679688 27.972656 -50.359375 25.703125 -50.359375 C 23.429688 -50.359375 21.617188 -49.679688 20.265625 -48.328125 C 18.910156 -46.972656 18.234375 -44.632812 18.234375 -41.3125 L 18.234375 -38.5625 L 4.59375 -38.5625 L 7.21875 -91.796875 L 45.25 -91.796875 L 45.25 -78.6875 L 20.203125 -78.6875 L 19.015625 -56.78125 C 21.722656 -61.238281 25.921875 -63.46875 31.609375 -63.46875 C 36.941406 -63.46875 40.941406 -61.675781 43.609375 -58.09375 C 46.273438 -54.507812 47.609375 -49.304688 47.609375 -42.484375 L 47.609375 -22.03125 C 47.609375 -14.601562 45.789062 -8.898438 42.15625 -4.921875 C 38.53125 -0.941406 33.175781 1.046875 26.09375 1.046875 C 19.007812 1.046875 13.65625 -0.941406 10.03125 -4.921875 C 6.40625 -8.898438 4.59375 -14.601562 4.59375 -22.03125 L 4.59375 -29.640625 Z M 18.234375 -29.640625 "/></g></g></g><g fill="#ffffff" fill-opacity="1"><g transform="translate(745.695331, 99.101331)"><g><path d="M 18.234375 -29.640625 L 18.234375 -21.109375 C 18.234375 -17.785156 18.910156 -15.46875 20.265625 -14.15625 C 21.617188 -12.851562 23.429688 -12.203125 25.703125 -12.203125 C 27.972656 -12.203125 29.785156 -12.851562 31.140625 -14.15625 C 32.492188 -15.46875 33.171875 -17.785156 33.171875 -21.109375 L 33.171875 -41.3125 C 33.171875 -44.632812 32.492188 -46.972656 31.140625 -48.328125 C 29.785156 -49.679688 27.972656 -50.359375 25.703125 -50.359375 C 23.429688 -50.359375 21.617188 -49.679688 20.265625 -48.328125 C 18.910156 -46.972656 18.234375 -44.632812 18.234375 -41.3125 L 18.234375 -38.5625 L 4.59375 -38.5625 L 7.21875 -91.796875 L 45.25 -91.796875 L 45.25 -78.6875 L 20.203125 -78.6875 L 19.015625 -56.78125 C 21.722656 -61.238281 25.921875 -63.46875 31.609375 -63.46875 C 36.941406 -63.46875 40.941406 -61.675781 43.609375 -58.09375 C 46.273438 -54.507812 47.609375 -49.304688 47.609375 -42.484375 L 47.609375 -22.03125 C 47.609375 -14.601562 45.789062 -8.898438 42.15625 -4.921875 C 38.53125 -0.941406 33.175781 1.046875 26.09375 1.046875 C 19.007812 1.046875 13.65625 -0.941406 10.03125 -4.921875 C 6.40625 -8.898438 4.59375 -14.601562 4.59375 -22.03125 L 4.59375 -29.640625 Z M 18.234375 -29.640625 "/></g></g></g></g></g></svg>